<svg xmlns="http://www.w3.org/2000/svg" viewBox="0 0 64 64">
  <rect width="64" height="64" rx="14" fill="#18181b"/>
  <path d="M20 42c2.5 2.1 6.1 3.3 10.6 3.3 7 0 11.4-3.2 11.4-8.6 0-4.7-3.1-7-9.4-8.4l-3.4-.8c-3.1-.7-4.3-1.6-4.3-3.3 0-1.9 1.7-3.1 4.7-3.1 3.2 0 5.8 1 8.1 2.9l3.3-4.8c-2.8-2.4-6.6-3.8-11.3-3.8-6.6 0-10.9 3.4-10.9 8.9 0 4.5 3 6.9 8.8 8.2l3.5.8c3.5.8 4.8 1.7 4.8 3.5 0 1.9-1.8 3-5.1 3-3.2 0-5.8-.9-8.4-2.8L20 42Z" fill="#ffffff"/>
  <path d="M17 18h16c8.3 0 13.5 4.8 13.5 12.2S41.3 42.4 33 42.4h-6.8V50H17V18Zm15.4 16.8c3 0 4.7-1.7 4.7-4.6s-1.7-4.6-4.7-4.6h-6.2v9.2h6.2Z" fill="#60a5fa" opacity=".82"/>
</svg>
